pimp my ride season 2 with GREEK embedded subtitles


Season 2
Season 2, Episode 1: Big Ron's Cadillac El Dorado
Original Air Date—24 October 2004
Season 2, Episode 2: Kiearah's Ford Escort
Original Air Date—31 October 2004
Season 2, Episode 3: Ryan's Volkswagen Bus
Original Air Date—7 November 2004
Season 2, Episode 4: Alice's Chevy Suburban
Original Air Date—14 November 2004
Season 2, Episode 5: Erin's Chevy Blazer
Original Air Date—21 November 2004
Season 2, Episode 6: Josh's Acura Legend
Original Air Date—28 November 2004
Season 2, Episode 7: Quoc-viet's Nissan 240 SX
Original Air Date—5 December 2004
Season 2, Episode 8: West's Ford Fairlane
Original Air Date—12 December 2004


Format                           : AVI
Format/Info                      : Audio Video Interleave
File size                        : 193 MiB
Duration                         : 20mn 9s
Overall bit rate                 : 1 341 Kbps

Video
ID                               : 0
Format                           : MPEG-4 Visual
Format profile                   : Simple@L1
Format settings, BVOP            : No
Format settings, QPel            : No
Format settings, GMC             : No warppoints
Format settings, Matrix          : Default (H.263)
Codec ID                         : DIVX
Codec ID/Info                    : Project Mayo
Codec ID/Hint                    : DivX 4
Duration                         : 20mn 9s
Bit rate                         : 1 200 Kbps
Width                            : 720 pixels
Height                           : 576 pixels
Display aspect ratio             : 4:3
Frame rate                       : 25.000 fps
Standard                         : PAL
Color space                      : YUV
Chroma subsampling               : 4:2:0
Bit depth                        : 8 bits
Scan type                        : Progressive
Compression mode                 : Lossy
Bits/(Pixel*Frame)               : 0.116
Stream size                      : 173 MiB (89%)
Writing library                  : avc2.0.11.1110

Audio
ID                               : 1
Format                           : MPEG Audio
Format version                   : Version 1
Format profile                   : Layer 3
Mode                             : Joint stereo
Mode extension                   : MS Stereo
Codec ID                         : 55
Codec ID/Hint                    : MP3
Duration                         : 20mn 9s
Bit rate mode                    : Constant
Bit rate                         : 128 Kbps
Channel(s)                       : 2 channels
Sampling rate                    : 48.0 KHz
Compression mode                 : Lossy
Stream size                      : 18.5 MiB (10%)
Alignment                        : Aligned on interleaves
Interleave, duration             : 24 ms (0.60 video frame)
Writing library                  : LAME3.96.1



screenshots:  
http://img838.imageshack.us/img838/6141/ep1t.jpg 
http://img534.imageshack.us/img534/7817/ep2ce.jpg 
http://img600.imageshack.us/img600/4690/ep3q.jpg 
http://img51.imageshack.us/img51/641/ep4wz.jpg 
http://img189.imageshack.us/img189/442/ep5t.jpg 
http://img403.imageshack.us/img403/2364/ep6p.jpg 
http://img443.imageshack.us/img443/1572/ep7zt.jpg 
http://img714.imageshack.us/img714/9504/ep8y.jpg 
http://img266.imageshack.us/img266/3405/ep9j.jpg 
http://img810.imageshack.us/img810/8021/ep10.jpg 
http://img402.imageshack.us/img402/7910/ep11b.jpg 
http://img268.imageshack.us/img268/4592/ep12n.jpg 
http://img703.imageshack.us/img703/6300/ep13.jpg 
http://img850.imageshack.us/img850/714/ep14.jpg 
http://img443.imageshack.us/img443/3435/ep15.jpg 
http://img690.imageshack.us/img690/3060/ep16x.jpg
